<svg width="48" height="48" viewBox="0 0 48 48" fill="none" xmlns="http://www.w3.org/2000/svg">
<rect width="48" height="48" rx="8" fill="#FBF0CE"/>
<g clip-path="url(#clip0_5_305)">
<path d="M24.7725 13.5285C24.5154 13.5095 24.2578 13.5 24 13.5V12C24.2948 12.0001 24.5895 12.0112 24.8835 12.033L24.7725 13.5285ZM27.7785 14.2035C27.2977 14.0179 26.8038 13.868 26.301 13.755L26.6295 12.291C27.2055 12.42 27.7685 12.591 28.3185 12.804L27.7785 14.2035ZM29.8335 15.2685C29.619 15.1255 29.3994 14.9904 29.175 14.8635L29.9145 13.5585C30.4274 13.849 30.9183 14.1769 31.383 14.5395L30.4605 15.723C30.2571 15.5644 30.048 15.4132 29.8335 15.27V15.2685ZM32.5845 17.9535C32.2878 17.532 31.9604 17.1329 31.605 16.7595L32.691 15.7245C33.097 16.1535 33.4705 16.6085 33.8115 17.0895L32.5845 17.9535ZM33.7005 19.9815C33.6021 19.7436 33.4951 19.5095 33.3795 19.2795L34.719 18.6045C34.9838 19.1312 35.2094 19.6767 35.394 20.2365L33.969 20.706C33.8884 20.4613 33.7989 20.2196 33.7005 19.9815ZM34.4955 23.742C34.4833 23.2265 34.4332 22.7126 34.3455 22.2045L35.823 21.9495C35.923 22.5295 35.981 23.1145 35.997 23.7045L34.4955 23.742ZM34.299 26.049C34.349 25.795 34.3895 25.54 34.4205 25.284L35.91 25.4685C35.8377 26.0537 35.7224 26.6328 35.565 27.201L34.119 26.8005C34.188 26.5535 34.248 26.303 34.299 26.049ZM32.871 29.6175C33.147 29.1815 33.39 28.7275 33.6 28.2555L34.971 28.863C34.731 29.403 34.4535 29.922 34.1385 30.42L32.871 29.6175ZM31.425 31.425C31.608 31.242 31.783 31.053 31.95 30.858L33.087 31.8375C32.8945 32.0608 32.6939 32.277 32.4855 32.4855L31.425 31.425Z" fill="#EAB308"/>
<path d="M24 13.5C22.2733 13.5001 20.5733 13.9261 19.0506 14.7401C17.5278 15.5541 16.2293 16.7312 15.2701 18.1669C14.3109 19.6026 13.7205 21.2527 13.5513 22.9711C13.3821 24.6895 13.6393 26.423 14.3001 28.0183C14.9609 29.6135 16.0049 31.0212 17.3396 32.1166C18.6743 33.212 20.2586 33.9613 21.9521 34.2982C23.6456 34.6351 25.396 34.5492 27.0484 34.048C28.7007 33.5468 30.204 32.6459 31.425 31.425L32.4855 32.4855C31.0901 33.8817 29.3719 34.9121 27.4831 35.4855C25.5942 36.0589 23.5932 36.1575 21.6571 35.7727C19.721 35.3879 17.9098 34.5315 16.3838 33.2793C14.8579 32.0272 13.6643 30.418 12.9089 28.5943C12.1535 26.7707 11.8596 24.7888 12.0532 22.8244C12.2468 20.86 12.9219 18.9737 14.0188 17.3325C15.1157 15.6914 16.6004 14.3462 18.3414 13.416C20.0825 12.4858 22.0261 11.9995 24 12V13.5Z" fill="#EAB308"/>
<path d="M23.25 16.5C23.4489 16.5 23.6397 16.579 23.7803 16.7197C23.921 16.8603 24 17.0511 24 17.25V25.065L28.872 27.849C29.0397 27.9502 29.1612 28.1129 29.2104 28.3024C29.2597 28.492 29.2329 28.6933 29.1358 28.8633C29.0386 29.0333 28.8788 29.1586 28.6905 29.2124C28.5022 29.2661 28.3003 29.2441 28.128 29.151L22.878 26.151C22.7632 26.0854 22.6678 25.9907 22.6014 25.8764C22.535 25.762 22.5 25.6322 22.5 25.5V17.25C22.5 17.0511 22.579 16.8603 22.7197 16.7197C22.8603 16.579 23.0511 16.5 23.25 16.5Z" fill="#EAB308"/>
</g>
<defs>
<clipPath id="clip0_5_305">
<rect width="24" height="24" fill="white" transform="translate(12 12)"/>
</clipPath>
</defs>
</svg>
