<svg width="48" height="48" viewBox="0 0 48 48" fill="none" xmlns="http://www.w3.org/2000/svg">
<rect width="48" height="48" rx="8" fill="#F2D1DF"/>
<path d="M17.856 14.6655C19.467 13.9335 21.6405 13.5 24 13.5C26.3595 13.5 28.533 13.9335 30.144 14.6655C31.6875 15.3675 33 16.4895 33 18C33 19.5105 31.6875 20.6325 30.144 21.3345C28.533 22.0665 26.3595 22.5 24 22.5C21.6405 22.5 19.467 22.0665 17.856 21.3345C16.3125 20.6325 15 19.5105 15 18C15 16.4895 16.3125 15.3675 17.856 14.6655Z" fill="#BE185D"/>
<path d="M15 21.2415V22.5C15 24.0105 16.3125 25.1325 17.856 25.8345C19.467 26.565 21.6405 27 24 27C26.3595 27 28.533 26.5665 30.144 25.8345C31.6875 25.1325 33 24.0105 33 22.5V21.2415C32.3145 21.8895 31.494 22.368 30.765 22.6995C28.917 23.5395 26.523 24 24 24C21.477 24 19.083 23.5395 17.235 22.6995C16.506 22.3695 15.6855 21.8895 15 21.2415Z" fill="#BE185D"/>
<path d="M15 25.7415V27C15 28.5105 16.3125 29.6325 17.856 30.3345C19.467 31.0665 21.6405 31.5 24 31.5C26.3595 31.5 28.533 31.0665 30.144 30.3345C31.6875 29.6325 33 28.5105 33 27V25.7415C32.3145 26.3895 31.494 26.868 30.765 27.1995C28.917 28.0395 26.523 28.5 24 28.5C21.477 28.5 19.083 28.0395 17.235 27.1995C16.506 26.8695 15.6855 26.3895 15 25.7415Z" fill="#BE185D"/>
<path d="M15 30.2415V31.5C15 33.0105 16.3125 34.1325 17.856 34.8345C19.467 35.5665 21.6405 36 24 36C26.3595 36 28.533 35.5665 30.144 34.8345C31.6875 34.1325 33 33.0105 33 31.5V30.2415C32.3145 30.8895 31.494 31.368 30.765 31.6995C28.917 32.5395 26.523 33 24 33C21.477 33 19.083 32.5395 17.235 31.6995C16.506 31.3695 15.6855 30.8895 15 30.2415Z" fill="#BE185D"/>
</svg>
